<svg xmlns="http://www.w3.org/2000/svg" xmlns:xlink="http://www.w3.org/1999/xlink" viewBox="0 0 1366 987"><defs><style>.cls-1{fill:url(#linear-gradient);}.cls-2{fill:#fff;opacity:0.09;}</style><linearGradient id="linear-gradient" x1="371.99" y1="-173.46" x2="994.01" y2="1160.46" gradientUnits="userSpaceOnUse"><stop offset="0" stop-color="#6cb56d"/><stop offset="0.31" stop-color="#47a348"/><stop offset="0.7" stop-color="#357a36"/><stop offset="1" stop-color="#245224"/></linearGradient></defs><title>Asset 11</title><g id="Layer_2" data-name="Layer 2"><g id="Layer_1-2" data-name="Layer 1"><rect id="green" class="cls-1" width="1366" height="987"/><path class="cls-2" d="M996.48,986.78C969.77,859.66,892.55,742.63,778,644a635.09,635.09,0,0,0,99.28-136.09c184.49-344.1,301.62-358.61,301.62-358.61C908.39,58,467.88,9.32,240.9,261.18c-33.6,37.38-57.17,73.32-73.45,107Q86.15,352.5.26,344.37L0,427.14q72,7.47,140.55,20.58c-19.37,99.16,20.53,164.83,20.53,164.83C515.56,110.9,911.49,167.9,911.49,167.9c-43.57.23-96.66,17.24-153.93,46l.54-.36S393.92,278,.28,954.16V986l70.89.28A2795.48,2795.48,0,0,1,230,736.15c189.63,103.9,354.88,61.88,476.76-29,89,80.62,150.33,174,175.43,274.87l1.13,5Z"/></g></g></svg>